<mxfile host="app.diagrams.net" modified="2023-05-18T17:23:30.673Z" agent="Mozilla/5.0 (Windows NT 10.0; Win64; x64) AppleWebKit/537.36 (KHTML, like Gecko) Chrome/113.0.0.0 Safari/537.36" etag="oMPf8Qb8w9G1D-0TpQUL" version="21.2.9" type="google">
  <diagram name="Page-1" id="T4fSAOKSZ9bsbYfZJsEg">
    <mxGraphModel grid="1" page="1" gridSize="10" guides="1" tooltips="1" connect="1" arrows="1" fold="1" pageScale="1" pageWidth="850" pageHeight="1100" math="0" shadow="0">
      <root>
        <mxCell id="0" />
        <mxCell id="1" parent="0" />
        <mxCell id="Nk8tHovUJdDtHxoe4uxw-15" style="edgeStyle=orthogonalEdgeStyle;rounded=0;orthogonalLoop=1;jettySize=auto;html=1;exitX=1;exitY=0;exitDx=0;exitDy=0;entryX=0;entryY=0.5;entryDx=0;entryDy=0;" edge="1" parent="1" source="Nk8tHovUJdDtHxoe4uxw-1" target="Nk8tHovUJdDtHxoe4uxw-2">
          <mxGeometry relative="1" as="geometry">
            <Array as="points">
              <mxPoint x="142" y="80" />
            </Array>
          </mxGeometry>
        </mxCell>
        <mxCell id="Nk8tHovUJdDtHxoe4uxw-67" value="pedido" style="edgeLabel;html=1;align=center;verticalAlign=middle;resizable=0;points=[];" connectable="0" vertex="1" parent="Nk8tHovUJdDtHxoe4uxw-15">
          <mxGeometry x="-0.0587" y="2" relative="1" as="geometry">
            <mxPoint as="offset" />
          </mxGeometry>
        </mxCell>
        <mxCell id="Nk8tHovUJdDtHxoe4uxw-26" value="data" style="edgeStyle=orthogonalEdgeStyle;rounded=0;orthogonalLoop=1;jettySize=auto;html=1;exitX=1;exitY=1;exitDx=0;exitDy=0;" edge="1" parent="1" source="Nk8tHovUJdDtHxoe4uxw-1" target="Nk8tHovUJdDtHxoe4uxw-10">
          <mxGeometry relative="1" as="geometry" />
        </mxCell>
        <mxCell id="Nk8tHovUJdDtHxoe4uxw-27" value="requerimento" style="edgeStyle=orthogonalEdgeStyle;rounded=0;orthogonalLoop=1;jettySize=auto;html=1;exitX=0.5;exitY=1;exitDx=0;exitDy=0;entryX=0.183;entryY=-0.05;entryDx=0;entryDy=0;entryPerimeter=0;" edge="1" parent="1" source="Nk8tHovUJdDtHxoe4uxw-1" target="Nk8tHovUJdDtHxoe4uxw-9">
          <mxGeometry relative="1" as="geometry" />
        </mxCell>
        <mxCell id="Nk8tHovUJdDtHxoe4uxw-1" value="Usuário" style="ellipse;whiteSpace=wrap;html=1;" vertex="1" parent="1">
          <mxGeometry x="40" y="110" width="120" height="80" as="geometry" />
        </mxCell>
        <mxCell id="Nk8tHovUJdDtHxoe4uxw-16" value="valor" style="edgeStyle=orthogonalEdgeStyle;rounded=0;orthogonalLoop=1;jettySize=auto;html=1;exitX=1;exitY=0.5;exitDx=0;exitDy=0;" edge="1" parent="1" source="Nk8tHovUJdDtHxoe4uxw-2" target="Nk8tHovUJdDtHxoe4uxw-6">
          <mxGeometry relative="1" as="geometry" />
        </mxCell>
        <mxCell id="Nk8tHovUJdDtHxoe4uxw-2" value="solicitar crédito" style="rounded=1;whiteSpace=wrap;html=1;" vertex="1" parent="1">
          <mxGeometry x="390" y="50" width="120" height="60" as="geometry" />
        </mxCell>
        <mxCell id="Nk8tHovUJdDtHxoe4uxw-21" value="valor" style="edgeStyle=orthogonalEdgeStyle;rounded=0;orthogonalLoop=1;jettySize=auto;html=1;exitX=1;exitY=0.5;exitDx=0;exitDy=0;entryX=0.366;entryY=-0.027;entryDx=0;entryDy=0;entryPerimeter=0;" edge="1" parent="1" source="Nk8tHovUJdDtHxoe4uxw-3" target="Nk8tHovUJdDtHxoe4uxw-60">
          <mxGeometry relative="1" as="geometry">
            <mxPoint x="535" y="210" as="targetPoint" />
          </mxGeometry>
        </mxCell>
        <mxCell id="Nk8tHovUJdDtHxoe4uxw-3" value="depositar" style="rounded=1;whiteSpace=wrap;html=1;" vertex="1" parent="1">
          <mxGeometry x="290" y="140" width="120" height="60" as="geometry" />
        </mxCell>
        <mxCell id="Nk8tHovUJdDtHxoe4uxw-17" style="edgeStyle=orthogonalEdgeStyle;rounded=0;orthogonalLoop=1;jettySize=auto;html=1;exitX=1;exitY=0.5;exitDx=0;exitDy=0;entryX=0.887;entryY=-0.057;entryDx=0;entryDy=0;entryPerimeter=0;" edge="1" parent="1" source="Nk8tHovUJdDtHxoe4uxw-6" target="Nk8tHovUJdDtHxoe4uxw-59">
          <mxGeometry relative="1" as="geometry">
            <mxPoint x="837.5" y="210" as="targetPoint" />
          </mxGeometry>
        </mxCell>
        <mxCell id="Nk8tHovUJdDtHxoe4uxw-68" value="consultar CNPJ&amp;nbsp;" style="edgeLabel;html=1;align=center;verticalAlign=middle;resizable=0;points=[];" connectable="0" vertex="1" parent="Nk8tHovUJdDtHxoe4uxw-17">
          <mxGeometry x="0.2314" y="2" relative="1" as="geometry">
            <mxPoint x="-3" as="offset" />
          </mxGeometry>
        </mxCell>
        <mxCell id="Nk8tHovUJdDtHxoe4uxw-18" style="edgeStyle=orthogonalEdgeStyle;rounded=0;orthogonalLoop=1;jettySize=auto;html=1;exitX=0.5;exitY=1;exitDx=0;exitDy=0;entryX=0;entryY=0.5;entryDx=0;entryDy=0;" edge="1" parent="1" source="Nk8tHovUJdDtHxoe4uxw-6" target="Nk8tHovUJdDtHxoe4uxw-59">
          <mxGeometry relative="1" as="geometry">
            <mxPoint x="710" y="240" as="targetPoint" />
            <Array as="points">
              <mxPoint x="650" y="180" />
              <mxPoint x="680" y="180" />
              <mxPoint x="680" y="235" />
            </Array>
          </mxGeometry>
        </mxCell>
        <mxCell id="Nk8tHovUJdDtHxoe4uxw-20" value="Não" style="edgeLabel;html=1;align=center;verticalAlign=middle;resizable=0;points=[];" connectable="0" vertex="1" parent="Nk8tHovUJdDtHxoe4uxw-18">
          <mxGeometry x="-0.4267" y="2" relative="1" as="geometry">
            <mxPoint x="-2" y="-17" as="offset" />
          </mxGeometry>
        </mxCell>
        <mxCell id="Nk8tHovUJdDtHxoe4uxw-69" value="consultar CPF" style="edgeLabel;html=1;align=center;verticalAlign=middle;resizable=0;points=[];" connectable="0" vertex="1" parent="Nk8tHovUJdDtHxoe4uxw-18">
          <mxGeometry x="0.2204" y="2" relative="1" as="geometry">
            <mxPoint y="1" as="offset" />
          </mxGeometry>
        </mxCell>
        <mxCell id="Nk8tHovUJdDtHxoe4uxw-6" value="empresa?" style="shape=rhombus;perimeter=rhombusPerimeter;whiteSpace=wrap;html=1;align=center;" vertex="1" parent="1">
          <mxGeometry x="590" y="40" width="120" height="80" as="geometry" />
        </mxCell>
        <mxCell id="Nk8tHovUJdDtHxoe4uxw-22" style="edgeStyle=orthogonalEdgeStyle;rounded=0;orthogonalLoop=1;jettySize=auto;html=1;exitX=1;exitY=0.5;exitDx=0;exitDy=0;entryX=0.5;entryY=1;entryDx=0;entryDy=0;" edge="1" parent="1" source="Nk8tHovUJdDtHxoe4uxw-7">
          <mxGeometry relative="1" as="geometry">
            <mxPoint x="535" y="250" as="targetPoint" />
          </mxGeometry>
        </mxCell>
        <mxCell id="Nk8tHovUJdDtHxoe4uxw-56" value="valor" style="edgeLabel;html=1;align=center;verticalAlign=middle;resizable=0;points=[];" connectable="0" vertex="1" parent="Nk8tHovUJdDtHxoe4uxw-22">
          <mxGeometry x="-0.0753" y="-1" relative="1" as="geometry">
            <mxPoint x="1" as="offset" />
          </mxGeometry>
        </mxCell>
        <mxCell id="Nk8tHovUJdDtHxoe4uxw-7" value="sacar" style="rounded=1;whiteSpace=wrap;html=1;" vertex="1" parent="1">
          <mxGeometry x="290" y="260" width="120" height="60" as="geometry" />
        </mxCell>
        <mxCell id="Nk8tHovUJdDtHxoe4uxw-28" value="requerimento" style="edgeStyle=orthogonalEdgeStyle;rounded=0;orthogonalLoop=1;jettySize=auto;html=1;exitX=0.5;exitY=0;exitDx=0;exitDy=0;entryX=0.163;entryY=1.003;entryDx=0;entryDy=0;entryPerimeter=0;" edge="1" parent="1" source="Nk8tHovUJdDtHxoe4uxw-8" target="Nk8tHovUJdDtHxoe4uxw-9">
          <mxGeometry relative="1" as="geometry" />
        </mxCell>
        <mxCell id="Nk8tHovUJdDtHxoe4uxw-52" style="edgeStyle=orthogonalEdgeStyle;rounded=0;orthogonalLoop=1;jettySize=auto;html=1;exitX=1;exitY=0;exitDx=0;exitDy=0;entryX=0.75;entryY=1;entryDx=0;entryDy=0;" edge="1" parent="1" source="Nk8tHovUJdDtHxoe4uxw-8">
          <mxGeometry relative="1" as="geometry">
            <mxPoint x="577.5" y="250" as="targetPoint" />
            <Array as="points">
              <mxPoint x="112" y="390" />
              <mxPoint x="578" y="390" />
            </Array>
          </mxGeometry>
        </mxCell>
        <mxCell id="Nk8tHovUJdDtHxoe4uxw-55" value="Acessar" style="edgeLabel;html=1;align=center;verticalAlign=middle;resizable=0;points=[];" connectable="0" vertex="1" parent="Nk8tHovUJdDtHxoe4uxw-52">
          <mxGeometry x="0.7583" y="2" relative="1" as="geometry">
            <mxPoint as="offset" />
          </mxGeometry>
        </mxCell>
        <mxCell id="Nk8tHovUJdDtHxoe4uxw-53" style="edgeStyle=orthogonalEdgeStyle;rounded=0;orthogonalLoop=1;jettySize=auto;html=1;entryX=0.57;entryY=1.131;entryDx=0;entryDy=0;entryPerimeter=0;" edge="1" parent="1" source="Nk8tHovUJdDtHxoe4uxw-8" target="Nk8tHovUJdDtHxoe4uxw-59">
          <mxGeometry relative="1" as="geometry">
            <mxPoint x="785" y="270" as="targetPoint" />
            <Array as="points">
              <mxPoint x="130" y="410" />
              <mxPoint x="784" y="410" />
              <mxPoint x="784" y="250" />
              <mxPoint x="785" y="250" />
            </Array>
          </mxGeometry>
        </mxCell>
        <mxCell id="Nk8tHovUJdDtHxoe4uxw-54" value="Acessar" style="edgeLabel;html=1;align=center;verticalAlign=middle;resizable=0;points=[];" connectable="0" vertex="1" parent="Nk8tHovUJdDtHxoe4uxw-53">
          <mxGeometry x="0.6903" y="1" relative="1" as="geometry">
            <mxPoint as="offset" />
          </mxGeometry>
        </mxCell>
        <mxCell id="Nk8tHovUJdDtHxoe4uxw-8" value="Gerente" style="ellipse;whiteSpace=wrap;html=1;" vertex="1" parent="1">
          <mxGeometry x="10" y="440" width="120" height="80" as="geometry" />
        </mxCell>
        <mxCell id="Nk8tHovUJdDtHxoe4uxw-9" value="listar operações" style="rounded=1;whiteSpace=wrap;html=1;" vertex="1" parent="1">
          <mxGeometry x="20" y="320" width="120" height="60" as="geometry" />
        </mxCell>
        <mxCell id="Nk8tHovUJdDtHxoe4uxw-70" value="valor" style="edgeStyle=orthogonalEdgeStyle;rounded=0;orthogonalLoop=1;jettySize=auto;html=1;exitX=0.75;exitY=1;exitDx=0;exitDy=0;entryX=0.5;entryY=0;entryDx=0;entryDy=0;" edge="1" parent="1" source="Nk8tHovUJdDtHxoe4uxw-10" target="Nk8tHovUJdDtHxoe4uxw-40">
          <mxGeometry relative="1" as="geometry" />
        </mxCell>
        <mxCell id="Nk8tHovUJdDtHxoe4uxw-10" value="pagamento programado" style="rounded=1;whiteSpace=wrap;html=1;" vertex="1" parent="1">
          <mxGeometry x="110" y="250" width="120" height="60" as="geometry" />
        </mxCell>
        <mxCell id="Nk8tHovUJdDtHxoe4uxw-12" value="" style="endArrow=classic;html=1;rounded=0;exitX=0.97;exitY=0.288;exitDx=0;exitDy=0;exitPerimeter=0;entryX=0;entryY=0.5;entryDx=0;entryDy=0;" edge="1" parent="1" source="Nk8tHovUJdDtHxoe4uxw-1" target="Nk8tHovUJdDtHxoe4uxw-3">
          <mxGeometry width="50" height="50" relative="1" as="geometry">
            <mxPoint x="340" y="280" as="sourcePoint" />
            <mxPoint x="310" y="160" as="targetPoint" />
          </mxGeometry>
        </mxCell>
        <mxCell id="Nk8tHovUJdDtHxoe4uxw-66" value="pedido" style="edgeLabel;html=1;align=center;verticalAlign=middle;resizable=0;points=[];" connectable="0" vertex="1" parent="Nk8tHovUJdDtHxoe4uxw-12">
          <mxGeometry x="-0.3487" y="-3" relative="1" as="geometry">
            <mxPoint x="-1" as="offset" />
          </mxGeometry>
        </mxCell>
        <mxCell id="Nk8tHovUJdDtHxoe4uxw-19" value="Sim" style="text;html=1;align=center;verticalAlign=middle;resizable=0;points=[];autosize=1;strokeColor=none;fillColor=none;" vertex="1" parent="1">
          <mxGeometry x="740" y="58" width="40" height="30" as="geometry" />
        </mxCell>
        <mxCell id="Nk8tHovUJdDtHxoe4uxw-36" style="edgeStyle=orthogonalEdgeStyle;rounded=0;orthogonalLoop=1;jettySize=auto;html=1;exitX=1;exitY=0.5;exitDx=0;exitDy=0;entryX=0;entryY=0.5;entryDx=0;entryDy=0;" edge="1" parent="1" source="Nk8tHovUJdDtHxoe4uxw-29">
          <mxGeometry relative="1" as="geometry">
            <mxPoint x="580" y="510" as="targetPoint" />
          </mxGeometry>
        </mxCell>
        <mxCell id="Nk8tHovUJdDtHxoe4uxw-29" value="inserir usuário" style="rounded=1;whiteSpace=wrap;html=1;" vertex="1" parent="1">
          <mxGeometry x="410" y="460" width="130" height="60" as="geometry" />
        </mxCell>
        <mxCell id="Nk8tHovUJdDtHxoe4uxw-37" style="edgeStyle=orthogonalEdgeStyle;rounded=0;orthogonalLoop=1;jettySize=auto;html=1;exitX=1;exitY=0.5;exitDx=0;exitDy=0;" edge="1" parent="1" source="Nk8tHovUJdDtHxoe4uxw-30" target="Nk8tHovUJdDtHxoe4uxw-61">
          <mxGeometry relative="1" as="geometry">
            <mxPoint x="580" y="520" as="targetPoint" />
            <Array as="points">
              <mxPoint x="600" y="600" />
            </Array>
          </mxGeometry>
        </mxCell>
        <mxCell id="Nk8tHovUJdDtHxoe4uxw-30" value="remover usuário" style="rounded=1;whiteSpace=wrap;html=1;" vertex="1" parent="1">
          <mxGeometry x="405" y="570" width="130" height="60" as="geometry" />
        </mxCell>
        <mxCell id="Nk8tHovUJdDtHxoe4uxw-47" style="edgeStyle=orthogonalEdgeStyle;rounded=0;orthogonalLoop=1;jettySize=auto;html=1;entryX=0.216;entryY=1.035;entryDx=0;entryDy=0;entryPerimeter=0;" edge="1" parent="1" source="Nk8tHovUJdDtHxoe4uxw-39">
          <mxGeometry relative="1" as="geometry">
            <mxPoint x="616.72" y="531.4000000000001" as="targetPoint" />
          </mxGeometry>
        </mxCell>
        <mxCell id="Nk8tHovUJdDtHxoe4uxw-39" value="atualizar dados cliente" style="rounded=1;whiteSpace=wrap;html=1;" vertex="1" parent="1">
          <mxGeometry x="405" y="650" width="115" height="60" as="geometry" />
        </mxCell>
        <mxCell id="Nk8tHovUJdDtHxoe4uxw-40" value="atualizar pagamentos" style="rounded=1;whiteSpace=wrap;html=1;" vertex="1" parent="1">
          <mxGeometry x="190" y="440" width="130" height="60" as="geometry" />
        </mxCell>
        <mxCell id="Nk8tHovUJdDtHxoe4uxw-42" style="edgeStyle=orthogonalEdgeStyle;rounded=0;orthogonalLoop=1;jettySize=auto;html=1;entryX=0;entryY=0.5;entryDx=0;entryDy=0;" edge="1" parent="1" source="Nk8tHovUJdDtHxoe4uxw-41" target="Nk8tHovUJdDtHxoe4uxw-29">
          <mxGeometry relative="1" as="geometry">
            <Array as="points">
              <mxPoint x="390" y="560" />
              <mxPoint x="390" y="490" />
            </Array>
          </mxGeometry>
        </mxCell>
        <mxCell id="Nk8tHovUJdDtHxoe4uxw-71" value="dados Pessoa" style="edgeLabel;html=1;align=center;verticalAlign=middle;resizable=0;points=[];" connectable="0" vertex="1" parent="Nk8tHovUJdDtHxoe4uxw-42">
          <mxGeometry x="-0.0821" y="1" relative="1" as="geometry">
            <mxPoint as="offset" />
          </mxGeometry>
        </mxCell>
        <mxCell id="Nk8tHovUJdDtHxoe4uxw-43" value="CPF/CNPJ" style="edgeStyle=orthogonalEdgeStyle;rounded=0;orthogonalLoop=1;jettySize=auto;html=1;" edge="1" parent="1" source="Nk8tHovUJdDtHxoe4uxw-41">
          <mxGeometry relative="1" as="geometry">
            <mxPoint x="405" y="590" as="targetPoint" />
            <Array as="points">
              <mxPoint x="400" y="590" />
              <mxPoint x="400" y="590" />
            </Array>
          </mxGeometry>
        </mxCell>
        <mxCell id="Nk8tHovUJdDtHxoe4uxw-49" value="data" style="edgeStyle=orthogonalEdgeStyle;rounded=0;orthogonalLoop=1;jettySize=auto;html=1;exitX=1;exitY=0;exitDx=0;exitDy=0;entryX=0.25;entryY=1;entryDx=0;entryDy=0;" edge="1" parent="1" source="Nk8tHovUJdDtHxoe4uxw-41" target="Nk8tHovUJdDtHxoe4uxw-40">
          <mxGeometry relative="1" as="geometry" />
        </mxCell>
        <mxCell id="Nk8tHovUJdDtHxoe4uxw-50" style="edgeStyle=orthogonalEdgeStyle;rounded=0;orthogonalLoop=1;jettySize=auto;html=1;exitX=1;exitY=1;exitDx=0;exitDy=0;entryX=0;entryY=0.5;entryDx=0;entryDy=0;" edge="1" parent="1" source="Nk8tHovUJdDtHxoe4uxw-41" target="Nk8tHovUJdDtHxoe4uxw-39">
          <mxGeometry relative="1" as="geometry" />
        </mxCell>
        <mxCell id="Nk8tHovUJdDtHxoe4uxw-72" value="novos dados" style="edgeLabel;html=1;align=center;verticalAlign=middle;resizable=0;points=[];" connectable="0" vertex="1" parent="Nk8tHovUJdDtHxoe4uxw-50">
          <mxGeometry x="0.411" y="2" relative="1" as="geometry">
            <mxPoint x="22" y="2" as="offset" />
          </mxGeometry>
        </mxCell>
        <mxCell id="Nk8tHovUJdDtHxoe4uxw-41" value="Banco" style="ellipse;whiteSpace=wrap;html=1;" vertex="1" parent="1">
          <mxGeometry x="10" y="540" width="120" height="80" as="geometry" />
        </mxCell>
        <mxCell id="Nk8tHovUJdDtHxoe4uxw-59" value="B3&lt;span style=&quot;white-space: pre;&quot;&gt;	&lt;/span&gt;&amp;nbsp; pedidos de crédito" style="html=1;dashed=0;whiteSpace=wrap;shape=mxgraph.dfd.dataStoreID;align=left;spacingLeft=3;points=[[0,0],[0.5,0],[1,0],[0,0.5],[1,0.5],[0,1],[0.5,1],[1,1]];" vertex="1" parent="1">
          <mxGeometry x="700" y="220" width="150" height="30" as="geometry" />
        </mxCell>
        <mxCell id="Nk8tHovUJdDtHxoe4uxw-60" value="B1&lt;span style=&quot;white-space: pre;&quot;&gt;	&lt;/span&gt;&amp;nbsp; histórico usuário" style="html=1;dashed=0;whiteSpace=wrap;shape=mxgraph.dfd.dataStoreID;align=left;spacingLeft=3;points=[[0,0],[0.5,0],[1,0],[0,0.5],[1,0.5],[0,1],[0.5,1],[1,1]];" vertex="1" parent="1">
          <mxGeometry x="480" y="220" width="150" height="30" as="geometry" />
        </mxCell>
        <mxCell id="Nk8tHovUJdDtHxoe4uxw-61" value="B2&lt;span style=&quot;white-space: pre;&quot;&gt;	&lt;/span&gt;&amp;nbsp; registros usuários" style="html=1;dashed=0;whiteSpace=wrap;shape=mxgraph.dfd.dataStoreID;align=left;spacingLeft=3;points=[[0,0],[0.5,0],[1,0],[0,0.5],[1,0.5],[0,1],[0.5,1],[1,1]];" vertex="1" parent="1">
          <mxGeometry x="590" y="490" width="150" height="30" as="geometry" />
        </mxCell>
        <mxCell id="Nk8tHovUJdDtHxoe4uxw-64" value="" style="endArrow=classic;html=1;rounded=0;exitX=0.963;exitY=0.759;exitDx=0;exitDy=0;exitPerimeter=0;entryX=0;entryY=0;entryDx=0;entryDy=0;" edge="1" parent="1" source="Nk8tHovUJdDtHxoe4uxw-1" target="Nk8tHovUJdDtHxoe4uxw-7">
          <mxGeometry width="50" height="50" relative="1" as="geometry">
            <mxPoint x="440" y="380" as="sourcePoint" />
            <mxPoint x="490" y="330" as="targetPoint" />
          </mxGeometry>
        </mxCell>
        <mxCell id="Nk8tHovUJdDtHxoe4uxw-65" value="pedido" style="edgeLabel;html=1;align=center;verticalAlign=middle;resizable=0;points=[];" connectable="0" vertex="1" parent="Nk8tHovUJdDtHxoe4uxw-64">
          <mxGeometry x="-0.5509" y="-2" relative="1" as="geometry">
            <mxPoint x="1" as="offset" />
          </mxGeometry>
        </mxCell>
      </root>
    </mxGraphModel>
  </diagram>
</mxfile>
